<?xml version="1.0" encoding="UTF-8"?>
<!DOCTYPE svg PUBLIC "-//W3C//DTD SVG 1.1//EN" "http://www.w3.org/Graphics/SVG/1.1/DTD/svg11.dtd">
<!-- Creator: CorelDRAW 2018 (64-Bit Evaluation Version) -->
<svg xmlns="http://www.w3.org/2000/svg" xml:space="preserve" width="32.512mm" height="32.512mm" version="1.1" style="shape-rendering:geometricPrecision; text-rendering:geometricPrecision; image-rendering:optimizeQuality; fill-rule:evenodd; clip-rule:evenodd"
viewBox="0 0 3251.2 3251.2"
 xmlns:xlink="http://www.w3.org/1999/xlink">
 <defs>
  <style type="text/css">
   <![CDATA[
    .fil1 {fill:none}
    .fil0 {fill:#008AD2}
   ]]>
  </style>
 </defs>
 <g id="Layer_x0020_1">
  <metadata id="CorelCorpID_0Corel-Layer"/>
  <path class="fil0" d="M1811.7 1190.05l20.19 -134.16c2.22,-14.74 -1.69,-28.27 -11.41,-39.56 -9.72,-11.3 -22.53,-17.17 -37.42,-17.17l-248.22 0c-24.62,0 -45.19,17.73 -48.83,42.11l-19.98 134.17c-2.2,14.71 1.73,28.24 11.43,39.52 9.72,11.25 22.53,17.12 37.4,17.12l248.02 0c24.61,0 45.16,-17.69 48.82,-42.03zm826.72 706.77l65.72 -442.78c44.38,-298.08 -18.45,-546.57 -187.37,-745.47 -168.93,-198.9 -401.86,-298.06 -699.34,-298.06 -315.38,0 -582.9,95.7 -803.14,287.1 -220.23,191.41 -353.41,443.36 -399.53,756.43l-65.73 442.78c-46.13,298.64 6.84,555.53 186.81,745.47 276.42,291.8 578.9,-32.14 439.32,-304.42 -91.5,-178.49 -84.75,-256.55 -57.09,-441.05l66.31 -445.66c25.95,-174.7 89.36,-318.82 191.41,-431.84 102.06,-113 227.15,-169.51 375.9,-169.51 152.22,0 260.6,54.2 325.76,163.76 65.72,108.95 84.73,254.82 57.63,437.59l-61.81 419.14 -3.91 26.52c-76.53,496.51 -466.01,652.76 -402.45,227.24l35.36 -236.73c3.64,-24.35 24.2,-42.08 48.83,-42.08l90.36 0c24.63,0 45.19,-17.75 48.83,-42.11l28.2 -189.74c-2.82,-2.84 -5.67,-5.66 -8.55,-8.42l-108.2 0c-14.91,0 -27.74,-5.89 -37.44,-17.2 -9.72,-11.3 -13.6,-24.87 -11.37,-39.6l6.12 -40.2 18.61 -122.19c2.23,-14.74 -1.65,-28.31 -11.37,-39.62 -9.7,-11.29 -22.53,-17.18 -37.44,-17.18l-246.76 0c-24.63,0 -45.18,17.7 -48.83,42.06l-20.57 137.38c-35.83,239.47 -156.76,731.55 -93.68,957.64 64.97,232.82 270.71,374.59 509.48,374.59 439.17,0 751.28,-562.04 809.93,-943.84z"/>
  <rect class="fil1" x="-0.01" y="-0" width="3251.2" height="3251.2"/>
 </g>
</svg>
